<svg width="282" height="32" viewBox="0 0 282 32" fill="none" xmlns="http://www.w3.org/2000/svg">
<path d="M23.958 2.14551V11.0869C22.7822 9.81543 21.6748 8.89258 20.6357 8.31836C19.4736 7.75781 18.2705 7.47754 17.0264 7.47754C14.6885 7.47754 12.7812 8.27734 11.3047 9.87695C10.7988 10.4512 10.3887 11.0527 10.0742 11.6816C9.75977 12.2969 9.52051 13.001 9.35645 13.7939C9.20605 14.5732 9.13086 15.3662 9.13086 16.1729C9.13086 18.5791 9.86914 20.582 11.3457 22.1816C12.8359 23.7539 14.7295 24.54 17.0264 24.54C18.2568 24.54 19.46 24.2461 20.6357 23.6582C21.6748 23.125 22.7822 22.209 23.958 20.9102V29.8721C22.4404 30.583 21.1484 31.0547 20.082 31.2871C18.7559 31.6016 17.457 31.7588 16.1855 31.7588C14.5723 31.7588 13.0547 31.5605 11.6328 31.1641C10.2109 30.7812 8.93945 30.1934 7.81836 29.4004C5.57617 27.8691 3.86719 25.9824 2.69141 23.7402C1.51562 21.416 0.927734 18.8389 0.927734 16.0088C0.927734 13.7393 1.31055 11.6543 2.07617 9.75391C2.41797 8.83789 2.84863 7.97656 3.36816 7.16992C3.90137 6.34961 4.58496 5.50195 5.41895 4.62695C6.85449 3.15039 8.46777 2.05664 10.2588 1.3457C12.0361 0.621094 14.0117 0.258789 16.1855 0.258789C17.4297 0.258789 18.7285 0.40918 20.082 0.709961C21.4219 1.06543 22.7139 1.54395 23.958 2.14551ZM175.22 31H167.57L165.807 18.0186C165.656 16.8564 165.547 15.8379 165.479 14.9629C165.383 14.1016 165.287 12.8779 165.191 11.292C164.945 12.7139 164.562 14.2998 164.043 16.0498C163.934 16.3916 163.852 16.6855 163.797 16.9316L159.716 31H154.261L150.18 16.9316C150.139 16.6992 150.057 16.4053 149.934 16.0498C149.359 14.2041 148.983 12.6182 148.806 11.292C148.696 12.7959 148.594 13.917 148.498 14.6553C148.457 15.0381 148.396 15.5986 148.313 16.3369C148.231 17.0752 148.17 17.6357 148.129 18.0186L146.365 31H138.757L143.392 0.976562H151.492L156.024 16.46C156.106 16.7471 156.161 16.9316 156.188 17.0137C156.585 18.2988 156.852 19.4746 156.988 20.541C157.016 20.1719 157.118 19.5703 157.296 18.7363C157.351 18.5312 157.556 17.7588 157.911 16.4189L162.484 0.976562H170.605L175.22 31Z" fill="#007BFF"/>
<path d="M36.137 10.98C41.753 10.98 46.407 15.582 46.407 21.198C46.407 27.022 41.805 31.416 36.137 31.416C30.469 31.416 25.867 27.022 25.867 21.198C25.867 15.582 30.521 10.98 36.137 10.98ZM36.137 29.128C40.375 29.128 43.963 25.67 43.963 21.198C43.963 16.882 40.739 13.268 36.137 13.268C31.535 13.268 28.311 16.882 28.311 21.198C28.311 25.67 31.899 29.128 36.137 29.128ZM48.5423 31V10.46L63.2583 25.878V11.396H65.7023V31.806L50.9863 16.388V31H48.5423ZM74.4684 13.632V31H72.0244V13.632H67.3704V11.396H79.1224V13.632H74.4684ZM90.7438 26.086H81.7478L79.5118 31H76.8857L86.2458 10.564L95.6058 31H92.9798L90.7438 26.086ZM89.7298 23.85L86.2458 15.92L82.7618 23.85H89.7298ZM111.521 12.306V15.14C110.117 13.892 108.193 13.216 106.347 13.216C101.953 13.216 98.599 16.882 98.599 21.224C98.599 25.514 101.927 29.18 106.295 29.18C108.219 29.18 110.065 28.452 111.521 27.152V30.038C110.013 30.922 108.089 31.416 106.373 31.416C100.783 31.416 96.155 26.97 96.155 21.302C96.155 15.504 100.809 10.98 106.581 10.98C108.297 10.98 110.039 11.396 111.521 12.306ZM119.714 13.632V31H117.27V13.632H112.616V11.396H124.368V13.632H119.714ZM190.08 26.086H181.084L178.848 31H176.222L185.582 10.564L194.942 31H192.316L190.08 26.086ZM189.066 23.85L185.582 15.92L182.098 23.85H189.066ZM196.349 31V10.46L211.065 25.878V11.396H213.509V31.806L198.793 16.388V31H196.349ZM228.775 26.086H219.779L217.543 31H214.917L224.277 10.564L233.637 31H231.011L228.775 26.086ZM227.761 23.85L224.277 15.92L220.793 23.85H227.761ZM245.366 21.12H253.14V21.9C253.14 27.282 249.344 31.416 243.858 31.416C238.372 31.416 233.952 26.684 233.952 21.25C233.952 15.608 238.476 10.98 244.118 10.98C247.16 10.98 250.176 12.358 252.1 14.776L250.384 16.414C248.98 14.49 246.614 13.216 244.222 13.216C239.828 13.216 236.396 16.778 236.396 21.172C236.396 25.28 239.776 29.18 244.014 29.18C247.056 29.18 250.332 26.554 250.436 23.356H245.366V21.12ZM255.565 31V11.396H266.095V13.632H258.009V19.118H265.861V21.354H258.009V28.764H266.095V31H255.565ZM275.13 22.472L281.318 31H278.354L272.582 22.706H271.568V31H269.124V11.396H272.088C273.83 11.396 275.702 11.422 277.262 12.306C278.9 13.268 279.836 15.114 279.836 16.986C279.836 19.794 277.964 22.134 275.13 22.472ZM271.568 13.58V20.678H272.348C274.844 20.678 277.548 20.21 277.548 17.09C277.548 14.022 274.636 13.58 272.218 13.58H271.568Z" fill="white"/>
</svg>
